<mxfile host="app.diagrams.net" modified="2021-10-28T21:44:47.824Z" agent="5.0 (Windows NT 10.0; Win64; x64) AppleWebKit/537.36 (KHTML, like Gecko) Chrome/95.0.4638.54 Safari/537.36" etag="iZIFJXaMJY-oAywruc2Z" version="15.6.2" type="github">
  <diagram id="THZz9VPKlbnPk8QDeJtV" name="Page-1">
    <mxGraphModel dx="1038" dy="547" grid="1" gridSize="10" guides="1" tooltips="1" connect="1" arrows="1" fold="1" page="1" pageScale="1" pageWidth="827" pageHeight="1169" math="0" shadow="0">
      <root>
        <mxCell id="0" />
        <mxCell id="1" parent="0" />
        <mxCell id="FMPoXQhVUgONB9Xmhco7-1" value="&lt;b&gt;PRIVATE SUBNET&lt;/b&gt;&lt;br&gt;&lt;b&gt;Hosts required 15&lt;/b&gt;&lt;br&gt;&lt;b&gt;Hosts supported 30&lt;/b&gt;&lt;br&gt;CIDR: network/subnet id 192.168.0.20/30&lt;br&gt;" style="points=[[0,0],[0.25,0],[0.5,0],[0.75,0],[1,0],[1,0.25],[1,0.5],[1,0.75],[1,1],[0.75,1],[0.5,1],[0.25,1],[0,1],[0,0.75],[0,0.5],[0,0.25]];outlineConnect=0;gradientColor=none;html=1;whiteSpace=wrap;fontSize=12;fontStyle=0;shape=mxgraph.aws4.group;grIcon=mxgraph.aws4.group_security_group;grStroke=0;strokeColor=#147EBA;fillColor=#E6F2F8;verticalAlign=top;align=left;spacingLeft=30;fontColor=#147EBA;dashed=0;" parent="1" vertex="1">
          <mxGeometry x="40" y="40" width="290" height="270" as="geometry" />
        </mxCell>
        <mxCell id="FMPoXQhVUgONB9Xmhco7-2" value="&lt;b&gt;PRIVATE SUBNET - Internet Access via NAT gateway&lt;/b&gt;&lt;br&gt;&lt;b&gt;Hosts supported 60&lt;/b&gt;&lt;br&gt;CIDR: network/subnet id: 192.168.0.0/26" style="points=[[0,0],[0.25,0],[0.5,0],[0.75,0],[1,0],[1,0.25],[1,0.5],[1,0.75],[1,1],[0.75,1],[0.5,1],[0.25,1],[0,1],[0,0.75],[0,0.5],[0,0.25]];outlineConnect=0;gradientColor=none;html=1;whiteSpace=wrap;fontSize=12;fontStyle=0;shape=mxgraph.aws4.group;grIcon=mxgraph.aws4.group_security_group;grStroke=0;strokeColor=#147EBA;fillColor=#E6F2F8;verticalAlign=top;align=left;spacingLeft=30;fontColor=#147EBA;dashed=0;" parent="1" vertex="1">
          <mxGeometry x="360" y="40" width="360" height="270" as="geometry" />
        </mxCell>
        <mxCell id="FMPoXQhVUgONB9Xmhco7-3" value="&lt;b&gt;PUBLIC SUBNET - Internet Access via Internet Gateway&lt;/b&gt;&lt;br&gt;&lt;b&gt;Hosts supported 14&lt;/b&gt;&lt;br&gt;CIDR: network/subnet id: 192.0.0.0/28" style="points=[[0,0],[0.25,0],[0.5,0],[0.75,0],[1,0],[1,0.25],[1,0.5],[1,0.75],[1,1],[0.75,1],[0.5,1],[0.25,1],[0,1],[0,0.75],[0,0.5],[0,0.25]];outlineConnect=0;gradientColor=none;html=1;whiteSpace=wrap;fontSize=12;fontStyle=0;shape=mxgraph.aws4.group;grIcon=mxgraph.aws4.group_security_group;grStroke=0;strokeColor=#248814;fillColor=#E9F3E6;verticalAlign=top;align=left;spacingLeft=30;fontColor=#248814;dashed=0;" parent="1" vertex="1">
          <mxGeometry x="120" y="320" width="470" height="280" as="geometry" />
        </mxCell>
        <mxCell id="FMPoXQhVUgONB9Xmhco7-9" style="edgeStyle=orthogonalEdgeStyle;rounded=0;orthogonalLoop=1;jettySize=auto;html=1;entryX=0;entryY=0.5;entryDx=0;entryDy=0;entryPerimeter=0;" parent="1" source="FMPoXQhVUgONB9Xmhco7-4" target="FMPoXQhVUgONB9Xmhco7-7" edge="1">
          <mxGeometry relative="1" as="geometry" />
        </mxCell>
        <mxCell id="FMPoXQhVUgONB9Xmhco7-4" value="" style="sketch=0;outlineConnect=0;fontColor=#232F3E;gradientColor=none;fillColor=#A166FF;strokeColor=none;dashed=0;verticalLabelPosition=bottom;verticalAlign=top;align=center;html=1;fontSize=12;fontStyle=0;aspect=fixed;pointerEvents=1;shape=mxgraph.aws4.router;" parent="1" vertex="1">
          <mxGeometry x="156" y="170" width="38" height="38" as="geometry" />
        </mxCell>
        <mxCell id="FMPoXQhVUgONB9Xmhco7-5" value="" style="sketch=0;outlineConnect=0;fontColor=#232F3E;gradientColor=none;fillColor=#A166FF;strokeColor=none;dashed=0;verticalLabelPosition=bottom;verticalAlign=top;align=center;html=1;fontSize=12;fontStyle=0;aspect=fixed;pointerEvents=1;shape=mxgraph.aws4.router;" parent="1" vertex="1">
          <mxGeometry x="440" y="170" width="38" height="38" as="geometry" />
        </mxCell>
        <mxCell id="FMPoXQhVUgONB9Xmhco7-12" style="edgeStyle=orthogonalEdgeStyle;rounded=0;orthogonalLoop=1;jettySize=auto;html=1;startArrow=none;" parent="1" source="kGmtYAZ3xOGs8lIi8EDT-12" target="FMPoXQhVUgONB9Xmhco7-4" edge="1">
          <mxGeometry relative="1" as="geometry">
            <Array as="points">
              <mxPoint x="70" y="189" />
            </Array>
          </mxGeometry>
        </mxCell>
        <mxCell id="FMPoXQhVUgONB9Xmhco7-6" value="" style="sketch=0;outlineConnect=0;fontColor=#232F3E;gradientColor=none;fillColor=#A166FF;strokeColor=none;dashed=0;verticalLabelPosition=bottom;verticalAlign=top;align=center;html=1;fontSize=12;fontStyle=0;aspect=fixed;pointerEvents=1;shape=mxgraph.aws4.router;" parent="1" vertex="1">
          <mxGeometry x="220" y="450" width="38" height="38" as="geometry" />
        </mxCell>
        <mxCell id="FMPoXQhVUgONB9Xmhco7-10" style="edgeStyle=orthogonalEdgeStyle;rounded=0;orthogonalLoop=1;jettySize=auto;html=1;startArrow=none;" parent="1" source="kGmtYAZ3xOGs8lIi8EDT-15" edge="1">
          <mxGeometry relative="1" as="geometry">
            <Array as="points">
              <mxPoint x="670" y="469" />
            </Array>
            <mxPoint x="580" y="469" as="targetPoint" />
          </mxGeometry>
        </mxCell>
        <mxCell id="FMPoXQhVUgONB9Xmhco7-7" value="NAT gateway" style="sketch=0;outlineConnect=0;fontColor=#232F3E;gradientColor=none;strokeColor=#232F3E;fillColor=#ffffff;dashed=0;verticalLabelPosition=bottom;verticalAlign=top;align=center;html=1;fontSize=12;fontStyle=0;aspect=fixed;shape=mxgraph.aws4.resourceIcon;resIcon=mxgraph.aws4.nat_gateway;" parent="1" vertex="1">
          <mxGeometry x="640" y="159" width="60" height="60" as="geometry" />
        </mxCell>
        <mxCell id="FMPoXQhVUgONB9Xmhco7-11" style="edgeStyle=orthogonalEdgeStyle;rounded=0;orthogonalLoop=1;jettySize=auto;html=1;" parent="1" target="FMPoXQhVUgONB9Xmhco7-6" edge="1">
          <mxGeometry relative="1" as="geometry">
            <mxPoint x="520" y="469" as="sourcePoint" />
          </mxGeometry>
        </mxCell>
        <mxCell id="FMPoXQhVUgONB9Xmhco7-22" style="edgeStyle=orthogonalEdgeStyle;rounded=0;orthogonalLoop=1;jettySize=auto;html=1;startArrow=none;" parent="1" source="kGmtYAZ3xOGs8lIi8EDT-5" target="FMPoXQhVUgONB9Xmhco7-23" edge="1">
          <mxGeometry relative="1" as="geometry">
            <mxPoint x="550" y="730" as="targetPoint" />
            <mxPoint x="550" y="499" as="sourcePoint" />
          </mxGeometry>
        </mxCell>
        <mxCell id="FMPoXQhVUgONB9Xmhco7-17" value="192.168.0.3" style="text;html=1;strokeColor=none;fillColor=none;align=center;verticalAlign=middle;whiteSpace=wrap;rounded=0;" parent="1" vertex="1">
          <mxGeometry x="580" y="159" width="60" height="30" as="geometry" />
        </mxCell>
        <mxCell id="FMPoXQhVUgONB9Xmhco7-18" value="192.168.0.4" style="text;html=1;strokeColor=none;fillColor=none;align=center;verticalAlign=middle;whiteSpace=wrap;rounded=0;" parent="1" vertex="1">
          <mxGeometry x="600" y="250" width="60" height="30" as="geometry" />
        </mxCell>
        <mxCell id="FMPoXQhVUgONB9Xmhco7-21" value="Router IP: 192.0.0.0&lt;br&gt;Address range 192.0.0.1 - 192.0.0.14&lt;br&gt;Broadcast address: 192.0.0.15" style="text;html=1;strokeColor=none;fillColor=none;align=center;verticalAlign=middle;whiteSpace=wrap;rounded=0;" parent="1" vertex="1">
          <mxGeometry x="133.25" y="488" width="211.5" height="92" as="geometry" />
        </mxCell>
        <mxCell id="FMPoXQhVUgONB9Xmhco7-23" value="" style="shape=image;html=1;verticalAlign=top;verticalLabelPosition=bottom;labelBackgroundColor=#ffffff;imageAspect=0;aspect=fixed;image=https://cdn0.iconfinder.com/data/icons/fatcow/32x32/www_page.png" parent="1" vertex="1">
          <mxGeometry x="502" y="610" width="96" height="96" as="geometry" />
        </mxCell>
        <mxCell id="FMPoXQhVUgONB9Xmhco7-27" value="" style="sketch=0;aspect=fixed;html=1;points=[];align=center;image;fontSize=12;image=img/lib/mscae/App_Service_IPAddress.svg;" parent="1" vertex="1">
          <mxGeometry x="73.38" y="170" width="72.62" height="61" as="geometry" />
        </mxCell>
        <mxCell id="FMPoXQhVUgONB9Xmhco7-28" value="192.168.0.21" style="text;html=1;strokeColor=none;fillColor=none;align=center;verticalAlign=middle;whiteSpace=wrap;rounded=0;" parent="1" vertex="1">
          <mxGeometry x="80" y="189" width="60" height="30" as="geometry" />
        </mxCell>
        <mxCell id="FMPoXQhVUgONB9Xmhco7-29" value="" style="sketch=0;aspect=fixed;html=1;points=[];align=center;image;fontSize=12;image=img/lib/mscae/App_Service_IPAddress.svg;" parent="1" vertex="1">
          <mxGeometry x="198.69" y="170" width="72.62" height="61" as="geometry" />
        </mxCell>
        <mxCell id="FMPoXQhVUgONB9Xmhco7-30" value="192.168.0.22" style="text;html=1;strokeColor=none;fillColor=none;align=center;verticalAlign=middle;whiteSpace=wrap;rounded=0;" parent="1" vertex="1">
          <mxGeometry x="204" y="189" width="60" height="30" as="geometry" />
        </mxCell>
        <mxCell id="FMPoXQhVUgONB9Xmhco7-31" value="" style="sketch=0;aspect=fixed;html=1;points=[];align=center;image;fontSize=12;image=img/lib/mscae/App_Service_IPAddress.svg;" parent="1" vertex="1">
          <mxGeometry x="363.69" y="170" width="72.62" height="61" as="geometry" />
        </mxCell>
        <mxCell id="FMPoXQhVUgONB9Xmhco7-32" value="192.168.0.1" style="text;html=1;strokeColor=none;fillColor=none;align=center;verticalAlign=middle;whiteSpace=wrap;rounded=0;" parent="1" vertex="1">
          <mxGeometry x="370" y="189" width="60" height="30" as="geometry" />
        </mxCell>
        <mxCell id="FMPoXQhVUgONB9Xmhco7-33" value="" style="sketch=0;aspect=fixed;html=1;points=[];align=center;image;fontSize=12;image=img/lib/mscae/App_Service_IPAddress.svg;" parent="1" vertex="1">
          <mxGeometry x="480" y="170" width="72.62" height="61" as="geometry" />
        </mxCell>
        <mxCell id="FMPoXQhVUgONB9Xmhco7-34" value="192.168.0.2" style="text;html=1;strokeColor=none;fillColor=none;align=center;verticalAlign=middle;whiteSpace=wrap;rounded=0;" parent="1" vertex="1">
          <mxGeometry x="486.31" y="189" width="60" height="30" as="geometry" />
        </mxCell>
        <mxCell id="FMPoXQhVUgONB9Xmhco7-36" value="&lt;span&gt;Router IP 192.168.0.20&lt;/span&gt;&lt;br&gt;&lt;div&gt;&lt;span&gt;Address range: 192.168.0.21 -&lt;/span&gt;&lt;span&gt;&amp;nbsp;192.168.0.49&lt;/span&gt;&lt;/div&gt;&lt;div&gt;&lt;span&gt;Broadcast address: 192.168.0.50&lt;/span&gt;&lt;/div&gt;&lt;div&gt;&lt;span&gt;&lt;br&gt;&lt;/span&gt;&lt;/div&gt;" style="text;html=1;strokeColor=none;fillColor=none;align=left;verticalAlign=top;whiteSpace=wrap;rounded=0;fontColor=#000000;" parent="1" vertex="1">
          <mxGeometry x="72.31" y="113" width="245.69" height="50" as="geometry" />
        </mxCell>
        <mxCell id="FMPoXQhVUgONB9Xmhco7-37" value="" style="sketch=0;aspect=fixed;html=1;points=[];align=center;image;fontSize=12;image=img/lib/mscae/App_Service_IPAddress.svg;" parent="1" vertex="1">
          <mxGeometry x="145" y="424" width="72.62" height="61" as="geometry" />
        </mxCell>
        <mxCell id="FMPoXQhVUgONB9Xmhco7-38" value="" style="sketch=0;aspect=fixed;html=1;points=[];align=center;image;fontSize=12;image=img/lib/mscae/App_Service_IPAddress.svg;" parent="1" vertex="1">
          <mxGeometry x="258.69" y="423" width="72.62" height="61" as="geometry" />
        </mxCell>
        <mxCell id="FMPoXQhVUgONB9Xmhco7-39" value="" style="sketch=0;aspect=fixed;html=1;points=[];align=center;image;fontSize=12;image=img/lib/mscae/App_Service_IPAddress.svg;" parent="1" vertex="1">
          <mxGeometry x="427.31" y="423" width="72.62" height="61" as="geometry" />
        </mxCell>
        <mxCell id="FMPoXQhVUgONB9Xmhco7-40" value="" style="sketch=0;aspect=fixed;html=1;points=[];align=center;image;fontSize=12;image=img/lib/mscae/App_Service_IPAddress.svg;" parent="1" vertex="1">
          <mxGeometry x="593.69" y="423" width="72.62" height="61" as="geometry" />
        </mxCell>
        <mxCell id="FMPoXQhVUgONB9Xmhco7-41" value="192.0.0.1" style="text;html=1;strokeColor=none;fillColor=none;align=center;verticalAlign=middle;whiteSpace=wrap;rounded=0;" parent="1" vertex="1">
          <mxGeometry x="155" y="439" width="60" height="30" as="geometry" />
        </mxCell>
        <mxCell id="FMPoXQhVUgONB9Xmhco7-42" value="192.0.0.2" style="text;html=1;strokeColor=none;fillColor=none;align=center;verticalAlign=middle;whiteSpace=wrap;rounded=0;" parent="1" vertex="1">
          <mxGeometry x="258" y="439" width="60" height="30" as="geometry" />
        </mxCell>
        <mxCell id="FMPoXQhVUgONB9Xmhco7-43" value="192.0.0.3" style="text;html=1;strokeColor=none;fillColor=none;align=center;verticalAlign=middle;whiteSpace=wrap;rounded=0;" parent="1" vertex="1">
          <mxGeometry x="427.31" y="439" width="60" height="30" as="geometry" />
        </mxCell>
        <mxCell id="FMPoXQhVUgONB9Xmhco7-44" value="192.0.0.4" style="text;html=1;strokeColor=none;fillColor=none;align=center;verticalAlign=middle;whiteSpace=wrap;rounded=0;" parent="1" vertex="1">
          <mxGeometry x="598" y="439" width="60" height="30" as="geometry" />
        </mxCell>
        <mxCell id="FMPoXQhVUgONB9Xmhco7-45" value="&lt;span&gt;Router IP 192.168.0.0&lt;/span&gt;&lt;br&gt;&lt;div&gt;&lt;span&gt;Address range: 192.168.0.1 -&lt;/span&gt;&lt;span&gt;&amp;nbsp;192.168.0.25&lt;/span&gt;&lt;/div&gt;&lt;div&gt;&lt;span&gt;Broadcast address: 192.168.0.26&lt;/span&gt;&lt;/div&gt;" style="text;html=1;strokeColor=none;fillColor=none;align=left;verticalAlign=top;whiteSpace=wrap;rounded=0;fontColor=#000000;" parent="1" vertex="1">
          <mxGeometry x="394.31" y="110" width="245.69" height="60" as="geometry" />
        </mxCell>
        <mxCell id="8pcZh-zjz2iARhw1TBGw-1" value="ROUTER A" style="text;html=1;strokeColor=none;fillColor=none;align=center;verticalAlign=middle;whiteSpace=wrap;rounded=0;" parent="1" vertex="1">
          <mxGeometry x="205" y="394" width="60" height="30" as="geometry" />
        </mxCell>
        <mxCell id="8pcZh-zjz2iARhw1TBGw-3" value="ROUTER B" style="text;html=1;strokeColor=none;fillColor=none;align=center;verticalAlign=middle;whiteSpace=wrap;rounded=0;" parent="1" vertex="1">
          <mxGeometry x="140" y="220" width="60" height="30" as="geometry" />
        </mxCell>
        <mxCell id="8pcZh-zjz2iARhw1TBGw-4" value="ROUTER C" style="text;html=1;strokeColor=none;fillColor=none;align=center;verticalAlign=middle;whiteSpace=wrap;rounded=0;" parent="1" vertex="1">
          <mxGeometry x="430" y="231" width="60" height="30" as="geometry" />
        </mxCell>
        <mxCell id="8pcZh-zjz2iARhw1TBGw-5" value="ROUTER D" style="text;html=1;strokeColor=none;fillColor=none;align=center;verticalAlign=middle;whiteSpace=wrap;rounded=0;" parent="1" vertex="1">
          <mxGeometry x="700" y="174" width="60" height="30" as="geometry" />
        </mxCell>
        <mxCell id="8pcZh-zjz2iARhw1TBGw-6" value="ROUTER E" style="text;html=1;strokeColor=none;fillColor=none;align=center;verticalAlign=middle;whiteSpace=wrap;rounded=0;" parent="1" vertex="1">
          <mxGeometry x="586.9300000000001" y="519" width="60" height="30" as="geometry" />
        </mxCell>
        <mxCell id="kGmtYAZ3xOGs8lIi8EDT-2" value="" style="sketch=0;outlineConnect=0;fontColor=#232F3E;gradientColor=none;fillColor=#FF5252;strokeColor=none;dashed=0;verticalLabelPosition=bottom;verticalAlign=top;align=center;html=1;fontSize=12;fontStyle=0;aspect=fixed;pointerEvents=1;shape=mxgraph.aws4.network_firewall_endpoints;" vertex="1" parent="1">
          <mxGeometry x="519" y="438" width="62.93" height="62.93" as="geometry" />
        </mxCell>
        <mxCell id="kGmtYAZ3xOGs8lIi8EDT-5" value="Internet&#xa;gateway" style="sketch=0;outlineConnect=0;fontColor=#232F3E;gradientColor=none;strokeColor=#232F3E;fillColor=#ffffff;dashed=0;verticalLabelPosition=bottom;verticalAlign=top;align=center;html=1;fontSize=12;fontStyle=0;aspect=fixed;shape=mxgraph.aws4.resourceIcon;resIcon=mxgraph.aws4.internet_gateway;" vertex="1" parent="1">
          <mxGeometry x="520" y="504" width="60" height="60" as="geometry" />
        </mxCell>
        <mxCell id="kGmtYAZ3xOGs8lIi8EDT-7" value="" style="edgeStyle=orthogonalEdgeStyle;rounded=0;orthogonalLoop=1;jettySize=auto;html=1;endArrow=none;" edge="1" parent="1" target="kGmtYAZ3xOGs8lIi8EDT-5">
          <mxGeometry relative="1" as="geometry">
            <mxPoint x="550" y="610" as="targetPoint" />
            <mxPoint x="550" y="499" as="sourcePoint" />
          </mxGeometry>
        </mxCell>
        <mxCell id="kGmtYAZ3xOGs8lIi8EDT-9" value="" style="sketch=0;outlineConnect=0;fontColor=#232F3E;gradientColor=none;fillColor=#FF5252;strokeColor=none;dashed=0;verticalLabelPosition=bottom;verticalAlign=top;align=center;html=1;fontSize=12;fontStyle=0;aspect=fixed;pointerEvents=1;shape=mxgraph.aws4.network_firewall_endpoints;" vertex="1" parent="1">
          <mxGeometry x="519" y="438" width="62.93" height="62.93" as="geometry" />
        </mxCell>
        <mxCell id="kGmtYAZ3xOGs8lIi8EDT-10" value="" style="sketch=0;outlineConnect=0;fontColor=#232F3E;gradientColor=none;fillColor=#FF5252;strokeColor=none;dashed=0;verticalLabelPosition=bottom;verticalAlign=top;align=center;html=1;fontSize=12;fontStyle=0;aspect=fixed;pointerEvents=1;shape=mxgraph.aws4.network_firewall_endpoints;" vertex="1" parent="1">
          <mxGeometry x="290" y="157.54000000000002" width="62.93" height="62.93" as="geometry" />
        </mxCell>
        <mxCell id="kGmtYAZ3xOGs8lIi8EDT-11" value="" style="sketch=0;outlineConnect=0;fontColor=#232F3E;gradientColor=none;fillColor=#FF5252;strokeColor=none;dashed=0;verticalLabelPosition=bottom;verticalAlign=top;align=center;html=1;fontSize=12;fontStyle=0;aspect=fixed;pointerEvents=1;shape=mxgraph.aws4.network_firewall_endpoints;" vertex="1" parent="1">
          <mxGeometry x="519" y="438" width="62.93" height="62.93" as="geometry" />
        </mxCell>
        <mxCell id="kGmtYAZ3xOGs8lIi8EDT-12" value="" style="sketch=0;outlineConnect=0;fontColor=#232F3E;gradientColor=none;fillColor=#FF5252;strokeColor=none;dashed=0;verticalLabelPosition=bottom;verticalAlign=top;align=center;html=1;fontSize=12;fontStyle=0;aspect=fixed;pointerEvents=1;shape=mxgraph.aws4.network_firewall_endpoints;" vertex="1" parent="1">
          <mxGeometry x="40" y="320" width="62.93" height="62.93" as="geometry" />
        </mxCell>
        <mxCell id="kGmtYAZ3xOGs8lIi8EDT-13" value="" style="edgeStyle=orthogonalEdgeStyle;rounded=0;orthogonalLoop=1;jettySize=auto;html=1;endArrow=none;" edge="1" parent="1" source="FMPoXQhVUgONB9Xmhco7-6" target="kGmtYAZ3xOGs8lIi8EDT-12">
          <mxGeometry relative="1" as="geometry">
            <Array as="points">
              <mxPoint x="70" y="469" />
            </Array>
            <mxPoint x="220" y="469" as="sourcePoint" />
            <mxPoint x="156" y="189" as="targetPoint" />
          </mxGeometry>
        </mxCell>
        <mxCell id="kGmtYAZ3xOGs8lIi8EDT-14" value="" style="sketch=0;outlineConnect=0;fontColor=#232F3E;gradientColor=none;fillColor=#FF5252;strokeColor=none;dashed=0;verticalLabelPosition=bottom;verticalAlign=top;align=center;html=1;fontSize=12;fontStyle=0;aspect=fixed;pointerEvents=1;shape=mxgraph.aws4.network_firewall_endpoints;" vertex="1" parent="1">
          <mxGeometry x="519" y="438" width="62.93" height="62.93" as="geometry" />
        </mxCell>
        <mxCell id="kGmtYAZ3xOGs8lIi8EDT-15" value="" style="sketch=0;outlineConnect=0;fontColor=#232F3E;gradientColor=none;fillColor=#FF5252;strokeColor=none;dashed=0;verticalLabelPosition=bottom;verticalAlign=top;align=center;html=1;fontSize=12;fontStyle=0;aspect=fixed;pointerEvents=1;shape=mxgraph.aws4.network_firewall_endpoints;" vertex="1" parent="1">
          <mxGeometry x="637.0699999999999" y="300" width="62.93" height="62.93" as="geometry" />
        </mxCell>
        <mxCell id="kGmtYAZ3xOGs8lIi8EDT-16" value="" style="edgeStyle=orthogonalEdgeStyle;rounded=0;orthogonalLoop=1;jettySize=auto;html=1;endArrow=none;" edge="1" parent="1" source="FMPoXQhVUgONB9Xmhco7-7" target="kGmtYAZ3xOGs8lIi8EDT-15">
          <mxGeometry relative="1" as="geometry">
            <Array as="points" />
            <mxPoint x="670" y="219" as="sourcePoint" />
            <mxPoint x="580" y="469" as="targetPoint" />
          </mxGeometry>
        </mxCell>
      </root>
    </mxGraphModel>
  </diagram>
</mxfile>
